<!DOCTYPE svg PUBLIC "-//W3C//DTD SVG 1.1//EN" "http://www.w3.org/Graphics/SVG/1.1/DTD/svg11.dtd">
<!-- Uploaded to: SVG Repo, www.svgrepo.com, Transformed by: SVG Repo Mixer Tools -->
<svg width="800px" height="800px" viewBox="0 -5 32 32" version="1.1" xmlns="http://www.w3.org/2000/svg" xmlns:xlink="http://www.w3.org/1999/xlink" fill="#000000">
<g id="SVGRepo_bgCarrier" stroke-width="0"/>
<g id="SVGRepo_tracerCarrier" stroke-linecap="round" stroke-linejoin="round"/>
<g id="SVGRepo_iconCarrier"> <title>menu</title> <desc>Created with Sketch.</desc> <g id="icons" stroke="none" stroke-width="1" fill="none" fill-rule="evenodd"> <g id="ui-gambling-website-lined-icnos-casinoshunter" transform="translate(-2294.000000, -159.000000)" fill="#000" fill-rule="nonzero"> <g id="1" transform="translate(1350.000000, 120.000000)"> <path d="M974,57 C975.104569,57 976,57.8954305 976,59 C976,60.1045695 975.104569,61 974,61 L946,61 C944.895431,61 944,60.1045695 944,59 C944,57.8954305 944.895431,57 946,57 L974,57 Z M974,48 C975.104569,48 976,48.8954305 976,50 C976,51.1045695 975.104569,52 974,52 L946,52 C944.895431,52 944,51.1045695 944,50 C944,48.8954305 944.895431,48 946,48 L974,48 Z M974,39 C975.104569,39 976,39.8954305 976,41 C976,42.1045695 975.104569,43 974,43 L946,43 C944.895431,43 944,42.1045695 944,41 C944,39.8954305 944.895431,39 946,39 L974,39 Z" id="menu"> </path> </g> </g> </g> </g>
</svg>