<!DOCTYPE svg PUBLIC "-//W3C//DTD SVG 1.1//EN" "http://www.w3.org/Graphics/SVG/1.1/DTD/svg11.dtd">

<!-- Uploaded to: SVG Repo, www.svgrepo.com, Transformed by: SVG Repo Mixer Tools -->
<svg width="800px" height="800px" viewBox="0 0 16.00 16.00" xmlns="http://www.w3.org/2000/svg" fill="#c50038" class="bi bi-grid-1x2-fill" style="--darkreader-inline-fill: #363a3d; --darkreader-inline-stroke: #c7c2ba;" stroke="#cacaca" data-darkreader-inline-fill="" data-darkreader-inline-stroke="" stroke-width="0.00016">

<g id="SVGRepo_bgCarrier" stroke-width="0"/>

<g id="SVGRepo_tracerCarrier" stroke-linecap="round" stroke-linejoin="round" stroke="#c50038" stroke-width="0.128" data-darkreader-inline-stroke="" style="--darkreader-inline-stroke: #c8c3bc;"/>

<g id="SVGRepo_iconCarrier"> <path d="M0 1a1 1 0 0 1 1-1h5a1 1 0 0 1 1 1v14a1 1 0 0 1-1 1H1a1 1 0 0 1-1-1V1zm9 0a1 1 0 0 1 1-1h5a1 1 0 0 1 1 1v5a1 1 0 0 1-1 1h-5a1 1 0 0 1-1-1V1zm0 9a1 1 0 0 1 1-1h5a1 1 0 0 1 1 1v5a1 1 0 0 1-1 1h-5a1 1 0 0 1-1-1v-5z"/> </g>

</svg>