<svg fill="none" height="24" viewBox="0 0 24 24" width="24" xmlns="http://www.w3.org/2000/svg"><path clip-rule="evenodd" d="m8.23129 2.24048c1.01209-.45353 1.88891.57097 1.57228 1.4605-1.07433 3.0183-.41425 6.44642 1.81573 8.67552 2.2413 2.2405 5.6921 2.899 8.7202 1.8054.8811-.3182 1.8778.55 1.4422 1.538-.0129.0292-.0259.0583-.039.0875-.7753 1.7192-2.0155 3.336-3.62 4.42-1.7102 1.1554-3.727 1.7727-5.7911 1.7727h-.001c-2.40025-.0026-4.7249-.8398-6.57543-2.368-1.85054-1.5282-3.11172-3.6524-3.56724-6.0084s-.07699-4.79698 1.07067-6.90453c1.08798-1.99796 2.91748-3.55059 4.94293-4.46531z" fill="#000" fill-rule="evenodd"/></svg>