<svg fill="none" height="24" viewBox="0 0 24 24" width="24" xmlns="http://www.w3.org/2000/svg"><g clip-rule="evenodd" fill="#000" fill-rule="evenodd"><path d="m12.8903 3.70589c.3362-1.09271 1.883-1.09272 2.2192 0l1.5535 5.04872c.0922.29957.3195.5386.614.64571l4.0647 1.47808c1.0474.3809 1.0474 1.8623 0 2.2432l-4.0647 1.478c-.2945.1071-.5218.3462-.614.6457l-1.5535 5.0488c-.3362 1.0927-1.883 1.0927-2.2192 0l-1.5535-5.0488c-.0921-.2995-.3194-.5386-.614-.6457l-4.06464-1.478c-1.04747-.3809-1.04747-1.8623 0-2.2432l4.06464-1.47808c.2946-.10711.5219-.34614.614-.64571z"/><path d="m3.80133 3.43379c.38398-1.15195 2.01338-1.15195 2.39737 0 .05784.17353.19401.3097.36754.36754 1.15195.38398 1.15195 2.01338 0 2.39737-.17353.05784-.3097.19401-.36754.36754-.38399 1.15195-2.01339 1.15195-2.39737 0-.05784-.17353-.19401-.3097-.36754-.36754-1.15195-.38399-1.15195-2.01339 0-2.39737.17353-.05784.3097-.19401.36754-.36754z"/><path d="m4.80133 17.4338c.38398-1.152 2.01338-1.152 2.39737 0 .05784.1735.19401.3097.36754.3675 1.15195.384 1.15195 2.0134 0 2.3974-.17353.0578-.3097.194-.36754.3675-.38399 1.152-2.01339 1.152-2.39737 0-.05784-.1735-.19401-.3097-.36754-.3675-1.15195-.384-1.15195-2.0134 0-2.3974.17353-.0578.3097-.194.36754-.3675z"/></g></svg>